# xmcd
#
# Track frame offsets: 
#        150
#        11737
#        25712
#        34472
#        47040
#        57285
#        67482
#        81260
#        95227
#        105225
#        118572
#        131932
#        147225
#        159075
#        171095
#
# Disc length: 2437 seconds
#
# Revision: 3
# Processed by: cddbd v1.5.2PL0 Copyright (c) Steve Scherf et al.
# Submitted via: ExactAudioCopy v1.0b3
#
DISCID=d209830f
DTITLE=Slim Harpo - Raining In My Heart
DYEAR=1961
DGENRE=Blues
TTITLE0=Rainin' In My Heart
TTITLE1=Blues Hangover
TTITLE2=Bobby-Sox Baby
TTITLE3=I Got Love If You Want It
TTITLE4=Snoopin' Around
TTITLE5=Buzz Me, Baby
TTITLE6=I'm A King Bee
TTITLE7=What A Dream
TTITLE8=Don't Start Cryin' Now
TTITLE9=Moody Blues
TTITLE10=My Home Is A Prison
TTITLE11=Dream Girl
TTITLE12=My Little Queen Bee
TTITLE13=Late Last Night
TTITLE14=Tip On In, Pt. 2
EXTD=
EXTT0=
EXTT1=
EXTT2=
EXTT3=
EXTT4=
EXTT5=
EXTT6=
EXTT7=
EXTT8=
EXTT9=
EXTT10=
EXTT11=
EXTT12=
EXTT13=
EXTT14=
PLAYORDER=
